<?xml version="1.0" standalone="no"?>
<!DOCTYPE svg PUBLIC "-//W3C//DTD SVG 20010904//EN"
 "http://www.w3.org/TR/2001/REC-SVG-20010904/DTD/svg10.dtd">
<svg version="1.0" xmlns="http://www.w3.org/2000/svg"
 width="432.000000pt" height="265.000000pt" viewBox="0 0 432.000000 265.000000"
 preserveAspectRatio="xMidYMid meet">

<g transform="translate(0.000000,265.000000) scale(0.100000,-0.100000)"
fill="#000000" stroke="none">
<path d="M407 2476 c-72 -26 -138 -91 -174 -172 -16 -36 -17 -84 -16 -609 1
-314 6 -690 11 -836 l8 -266 32 -66 c39 -79 120 -157 189 -182 51 -19 -13 -16
1238 -45 494 -11 1155 -30 1820 -51 358 -12 360 -11 416 10 75 29 132 80 166
149 27 54 28 63 26 187 -3 206 -48 886 -78 1170 -15 145 -32 194 -93 271 -46
58 -112 105 -187 133 -84 31 -1025 143 -1775 210 -610 55 -1372 111 -1488 111
-32 -1 -74 -7 -95 -14z"/>
<path d="M56 811 c5 -243 8 -292 25 -346 38 -125 150 -236 269 -269 43 -12
163 -18 570 -26 942 -19 1632 -37 2465 -66 565 -20 629 -18 710 19 77 36 147
109 176 185 27 69 27 150 4 522 -17 273 -30 350 -22 130 2 -78 1 -105 -3 -65
-3 39 -5 -76 -3 -255 3 -293 1 -328 -14 -360 -41 -81 -144 -151 -243 -165 -25
-4 -245 1 -490 9 -907 32 -1516 49 -2535 69 l-590 13 -67 31 c-113 53 -190
149 -216 268 -6 28 -14 144 -17 260 -4 116 -11 237 -15 270 -6 37 -7 -50 -4
-224z"/>
<path d="M4233 1030 c0 -36 2 -50 4 -32 2 17 2 47 0 65 -2 17 -4 3 -4 -33z"/>
</g>
</svg>
