<?xml version="1.0" standalone="no"?>
<!DOCTYPE svg PUBLIC "-//W3C//DTD SVG 20010904//EN"
 "http://www.w3.org/TR/2001/REC-SVG-20010904/DTD/svg10.dtd">
<svg version="1.0" xmlns="http://www.w3.org/2000/svg"
 width="432.000000pt" height="265.000000pt" viewBox="0 0 432.000000 265.000000"
 preserveAspectRatio="xMidYMid meet">

<g transform="translate(0.000000,265.000000) scale(0.100000,-0.100000)"
fill="#000000" stroke="none">
<path d="M407 2476 c-72 -26 -138 -91 -174 -172 -16 -36 -17 -85 -16 -609 1
-314 6 -690 11 -836 l8 -266 32 -66 c39 -79 120 -157 189 -182 51 -19 -13 -17
1238 -45 536 -12 1276 -33 1816 -51 381 -13 399 -12 484 42 56 36 101 98 121
167 18 60 14 150 -27 762 -29 438 -54 666 -77 720 -44 102 -137 188 -247 229
-84 31 -1025 143 -1775 210 -610 55 -1372 111 -1488 111 -32 -1 -74 -7 -95
-14z m468 -146 c88 -5 207 -12 265 -15 58 -4 157 -11 220 -16 63 -5 201 -16
305 -24 217 -18 406 -35 685 -65 107 -11 283 -29 390 -40 376 -39 840 -101
903 -120 74 -23 130 -61 180 -122 61 -74 99 -192 77 -237 -11 -23 -39 -90 -42
-99 -3 -11 -26 -32 -35 -32 -5 0 -24 -13 -43 -30 -19 -16 -43 -29 -53 -30 -10
0 -25 -7 -33 -15 -12 -12 -45 -15 -165 -15 -98 0 -148 -4 -144 -10 4 -6 -26
-10 -82 -11 -80 -1 -85 -2 -59 -13 26 -12 17 -14 -90 -20 -66 -4 -120 -11
-122 -17 -2 -5 -29 -9 -60 -9 -41 0 -53 -3 -42 -10 12 -7 8 -10 -15 -10 -24 0
-27 -2 -15 -11 13 -9 13 -10 0 -8 -30 5 -110 -13 -104 -23 4 -6 -2 -5 -14 1
-11 6 -27 11 -34 10 -7 0 -4 -4 7 -9 15 -6 16 -9 5 -11 -8 -1 -19 -3 -25 -4
-5 -2 -39 -3 -74 -4 -63 -1 -80 -9 -28 -13 56 -5 11 -18 -61 -18 -57 -1 -72
-3 -59 -11 25 -14 21 -24 -10 -27 -15 -1 -32 -7 -37 -12 -6 -6 -19 -11 -30
-11 -12 -1 -5 -5 14 -9 30 -6 26 -8 -30 -10 -49 -1 -59 -4 -40 -10 20 -6 14
-8 -30 -10 -30 -1 -62 -1 -70 0 -8 1 -12 -1 -8 -5 4 -4 24 -10 45 -12 58 -6
52 -13 -13 -14 -32 -1 -51 -3 -41 -6 9 -2 17 -11 17 -19 0 -11 -18 -14 -82
-14 l-81 0 23 20 23 20 -22 0 c-12 0 -19 -4 -16 -10 3 -5 -1 -10 -10 -10 -9 0
-13 5 -10 10 4 6 -27 10 -86 10 -108 0 -116 9 -11 12 40 1 72 6 72 11 0 4 -10
8 -22 7 -65 -6 -152 1 -138 10 10 7 -15 10 -80 11 -52 1 -87 3 -77 6 30 8 18
18 -20 18 -21 -1 -48 2 -59 6 -12 4 -73 9 -137 10 -63 2 -113 7 -111 11 3 4
-12 8 -33 9 -30 0 -34 2 -18 9 13 6 -20 9 -92 9 -68 1 -113 5 -113 11 0 6 6
11 13 11 6 1 -27 5 -75 9 -48 4 -93 12 -100 18 -7 5 -30 13 -50 17 -21 4 -35
11 -32 16 3 5 -6 9 -20 9 -14 0 -26 5 -26 10 0 6 -16 10 -36 10 -21 0 -33 4
-29 10 3 6 -3 10 -15 10 -11 0 -23 7 -26 15 -4 8 -14 15 -24 15 -10 0 -32 14
-50 30 -18 17 -35 30 -40 30 -11 0 -51 37 -50 47 0 4 -8 9 -20 11 -11 2 -20 8
-20 13 0 5 -7 9 -16 9 -8 0 -13 4 -10 8 3 5 -8 21 -25 36 -16 15 -29 33 -29
40 0 6 -9 18 -20 26 -11 8 -20 18 -20 22 0 14 -74 163 -86 173 -40 35 -43 213
-4 288 68 132 155 181 300 170 25 -2 117 -7 205 -13z"/>
<path d="M2858 1363 c7 -3 16 -2 19 1 4 3 -2 6 -13 5 -11 0 -14 -3 -6 -6z"/>
<path d="M2158 1123 c7 -3 16 -2 19 1 4 3 -2 6 -13 5 -11 0 -14 -3 -6 -6z"/>
<path d="M2238 1123 c7 -3 16 -2 19 1 4 3 -2 6 -13 5 -11 0 -14 -3 -6 -6z"/>
<path d="M56 811 c5 -243 8 -292 25 -346 38 -125 150 -236 269 -269 43 -12
163 -18 570 -26 942 -19 1632 -37 2465 -66 565 -20 629 -18 710 19 77 36 147
109 176 185 27 69 27 150 4 522 -17 273 -30 350 -22 130 2 -78 1 -105 -3 -65
-3 39 -5 -76 -3 -255 3 -293 1 -328 -14 -360 -41 -81 -144 -151 -243 -165 -25
-4 -245 1 -490 9 -907 32 -1516 49 -2535 69 l-590 13 -67 31 c-113 53 -190
149 -216 268 -6 28 -14 144 -17 260 -4 116 -11 237 -15 270 -6 37 -7 -50 -4
-224z"/>
<path d="M4233 1030 c0 -36 2 -50 4 -32 2 17 2 47 0 65 -2 17 -4 3 -4 -33z"/>
</g>
</svg>
