<?xml version="1.0" standalone="no"?>
<!DOCTYPE svg PUBLIC "-//W3C//DTD SVG 20010904//EN"
 "http://www.w3.org/TR/2001/REC-SVG-20010904/DTD/svg10.dtd">
<svg version="1.0" xmlns="http://www.w3.org/2000/svg"
 width="431.000000pt" height="249.000000pt" viewBox="0 0 431.000000 249.000000"
 preserveAspectRatio="xMidYMid meet">

<g transform="translate(0.000000,249.000000) scale(0.100000,-0.100000)"
fill="#000000" stroke="none">
<path d="M2760 2319 c-660 -12 -1845 -40 -2080 -48 -182 -7 -223 -12 -270 -29
-74 -29 -153 -99 -183 -165 -38 -79 -50 -334 -46 -972 l4 -520 27 -57 c49
-104 144 -184 249 -207 78 -18 2535 -81 3146 -81 200 0 228 2 277 21 101 37
183 141 204 259 6 36 7 323 2 812 l-8 758 -26 54 c-34 69 -119 148 -182 170
-54 18 -341 19 -1114 5z m947 -149 c119 -25 193 -127 201 -276 8 -144 1 -164
-80 -244 -39 -38 -77 -70 -84 -70 -7 0 -21 -11 -31 -23 -10 -13 -35 -29 -56
-36 -20 -7 -40 -18 -44 -25 -5 -7 -17 -16 -28 -19 -17 -5 -75 -26 -165 -60 -8
-3 -24 -8 -35 -10 -51 -14 -204 -70 -236 -87 -20 -11 -45 -20 -56 -20 -10 0
-43 -9 -73 -21 -30 -12 -77 -25 -105 -31 -27 -5 -60 -16 -72 -24 -12 -8 -34
-14 -48 -14 -14 0 -42 -9 -62 -20 -21 -11 -53 -20 -71 -20 -18 0 -49 -7 -69
-15 -19 -8 -45 -15 -57 -15 -12 0 -26 -4 -32 -9 -5 -5 -43 -15 -84 -21 -41 -7
-102 -16 -135 -21 -116 -19 -232 -21 -387 -9 -87 7 -158 16 -158 20 0 4 -26
11 -57 15 -32 4 -62 10 -68 15 -5 4 -37 11 -70 15 -33 4 -85 15 -115 26 -30
10 -66 19 -80 19 -14 0 -38 7 -54 15 -15 8 -40 15 -55 15 -14 0 -38 7 -53 14
-16 8 -48 18 -73 22 -25 3 -45 10 -45 15 0 5 -11 9 -25 9 -26 0 -175 44 -207
61 -10 5 -29 9 -43 9 -14 0 -25 5 -25 10 0 6 -11 10 -25 10 -14 0 -25 5 -25
10 0 6 -9 10 -20 10 -11 0 -20 4 -20 9 0 5 -14 12 -30 16 -17 4 -30 11 -30 16
0 5 -6 9 -14 9 -8 0 -26 10 -41 23 -57 46 -167 163 -176 185 -5 13 -9 76 -9
140 0 102 3 124 24 167 33 72 101 129 179 149 95 25 1154 73 1732 79 493 5
1343 -3 1392 -13z"/>
<path d="M32 790 c-2 -285 5 -338 60 -423 39 -61 107 -120 174 -152 93 -44 30
-41 1599 -80 895 -22 1805 -38 1985 -33 158 3 167 5 218 31 113 59 191 174
211 307 5 38 6 174 2 330 -7 234 -8 249 -11 125 l-4 -140 -6 125 c-4 103 -6
71 -11 -175 -4 -165 -9 -314 -12 -332 -15 -85 -89 -173 -185 -220 l-57 -28
-380 2 c-915 5 -3192 64 -3270 84 -67 18 -154 70 -197 118 -70 79 -87 128 -94
276 -23 483 -21 468 -22 185z"/>
</g>
</svg>
