<?xml version="1.0" standalone="no"?>
<!DOCTYPE svg PUBLIC "-//W3C//DTD SVG 20010904//EN"
 "http://www.w3.org/TR/2001/REC-SVG-20010904/DTD/svg10.dtd">
<svg version="1.0" xmlns="http://www.w3.org/2000/svg"
 width="431.000000pt" height="249.000000pt" viewBox="0 0 431.000000 249.000000"
 preserveAspectRatio="xMidYMid meet">

<g transform="translate(0.000000,249.000000) scale(0.100000,-0.100000)"
fill="#000000" stroke="none">
<path d="M2760 2319 c-660 -12 -1845 -40 -2080 -48 -182 -7 -223 -12 -270 -29
-74 -29 -153 -99 -183 -165 -38 -79 -50 -334 -46 -972 l4 -520 27 -57 c49
-104 144 -184 249 -207 78 -18 2535 -81 3146 -81 200 0 228 2 277 21 101 37
183 141 204 259 6 36 7 323 2 812 l-8 758 -26 54 c-34 69 -119 148 -182 170
-54 18 -341 19 -1114 5z"/>
<path d="M32 790 c-2 -285 5 -338 60 -423 39 -61 107 -120 174 -152 93 -44 30
-41 1599 -80 895 -22 1805 -38 1985 -33 158 3 167 5 218 31 113 59 191 174
211 307 5 38 6 174 2 330 -7 234 -8 249 -11 125 l-4 -140 -6 125 c-4 103 -6
71 -11 -175 -4 -165 -9 -314 -12 -332 -15 -85 -89 -173 -185 -220 l-57 -28
-380 2 c-915 5 -3192 64 -3270 84 -67 18 -154 70 -197 118 -70 79 -87 128 -94
276 -23 483 -21 468 -22 185z"/>
</g>
</svg>
