<?xml version="1.0" standalone="no"?>
<!DOCTYPE svg PUBLIC "-//W3C//DTD SVG 20010904//EN"
 "http://www.w3.org/TR/2001/REC-SVG-20010904/DTD/svg10.dtd">
<svg version="1.0" xmlns="http://www.w3.org/2000/svg"
 width="428.000000pt" height="253.000000pt" viewBox="0 0 428.000000 253.000000"
 preserveAspectRatio="xMidYMid meet">

<g transform="translate(0.000000,253.000000) scale(0.100000,-0.100000)"
fill="#000000" stroke="none">
<path d="M471 2354 c-69 -18 -108 -43 -160 -99 -92 -100 -96 -142 -96 -1050
l0 -660 31 -65 c42 -90 84 -134 162 -172 l67 -33 505 -6 c653 -8 1845 -8 2405
0 l440 6 55 26 c69 33 133 97 168 169 l27 55 3 623 c1 343 -1 703 -6 800 -8
160 -12 182 -35 227 -48 95 -135 163 -235 184 -37 8 -530 11 -1665 10 -1379 0
-1620 -2 -1666 -15z"/>
<path d="M30 759 c0 -162 5 -314 11 -338 36 -156 158 -278 309 -310 40 -9 512
-12 1800 -12 1864 0 1799 -1 1891 47 77 39 156 135 191 232 18 49 22 84 24
262 2 113 0 252 -5 310 l-8 105 -3 -145 c-3 -128 -4 -136 -9 -65 -5 58 -8 9
-13 -175 -4 -140 -8 -263 -8 -274 -2 -38 -46 -112 -95 -161 -72 -73 -128 -96
-255 -106 -125 -10 -2998 -10 -3315 -1 -214 7 -222 8 -277 35 -73 36 -160 128
-186 199 -17 45 -21 98 -32 368 -6 173 -13 317 -16 319 -2 2 -4 -128 -4 -290z"/>
</g>
</svg>
