<?xml version="1.0" standalone="no"?>
<!DOCTYPE svg PUBLIC "-//W3C//DTD SVG 20010904//EN"
 "http://www.w3.org/TR/2001/REC-SVG-20010904/DTD/svg10.dtd">
<svg version="1.0" xmlns="http://www.w3.org/2000/svg"
 width="428.000000pt" height="253.000000pt" viewBox="0 0 428.000000 253.000000"
 preserveAspectRatio="xMidYMid meet">

<g transform="translate(0.000000,253.000000) scale(0.100000,-0.100000)"
fill="#000000" stroke="none">
<path d="M471 2354 c-69 -18 -108 -43 -160 -99 -92 -100 -96 -142 -96 -1050
l0 -660 31 -65 c42 -90 84 -134 162 -172 l67 -33 505 -6 c653 -8 1845 -8 2405
0 l440 6 55 26 c69 33 133 97 168 169 l27 55 3 623 c1 343 -1 703 -6 800 -8
160 -12 182 -35 227 -48 95 -135 163 -235 184 -37 8 -530 11 -1665 10 -1379 0
-1620 -2 -1666 -15z m3119 -123 c77 -5 150 -15 170 -23 50 -21 124 -97 155
-158 51 -101 43 -309 -14 -350 -14 -10 -37 -40 -51 -67 -14 -26 -35 -58 -47
-71 -13 -13 -23 -29 -23 -37 0 -8 -7 -15 -15 -15 -8 0 -17 -11 -21 -25 -3 -14
-12 -25 -20 -25 -8 0 -14 -4 -14 -10 0 -5 -7 -10 -15 -10 -8 0 -15 -4 -15 -9
0 -5 -13 -14 -30 -21 -16 -7 -30 -15 -30 -19 0 -4 -20 -13 -45 -20 -25 -7 -45
-17 -45 -22 0 -5 -18 -9 -40 -9 -22 0 -40 -4 -40 -10 0 -5 -15 -10 -34 -10
-65 0 -155 -13 -150 -21 3 -5 -6 -9 -20 -9 -14 0 -26 -4 -26 -10 0 -6 -33 -10
-79 -10 -44 0 -81 -4 -83 -9 -3 -8 -220 -45 -343 -58 -27 -3 -56 -11 -64 -17
-19 -15 -829 -15 -839 0 -4 6 -29 14 -57 17 -131 14 -341 49 -349 57 -6 6 -43
10 -83 10 -42 0 -73 4 -73 10 0 6 -11 10 -25 10 -14 0 -25 4 -25 9 0 5 -40 13
-90 17 -49 3 -90 10 -90 15 0 5 -18 9 -40 9 -22 0 -40 5 -40 10 0 6 -20 10
-45 10 -25 0 -45 5 -45 10 0 6 -20 10 -45 10 -31 0 -47 5 -51 15 -4 8 -18 15
-34 15 -15 0 -33 7 -40 15 -7 8 -19 15 -26 15 -8 0 -14 5 -14 10 0 6 -6 10
-12 10 -7 0 -30 18 -51 40 -20 22 -42 40 -47 40 -6 0 -10 4 -10 9 0 5 -15 27
-32 48 -18 22 -44 63 -58 91 -15 32 -31 52 -42 52 -37 0 -52 170 -23 267 31
105 131 197 233 214 109 18 812 27 1832 23 564 -2 1086 -8 1160 -13z"/>
<path d="M30 759 c0 -162 5 -314 11 -338 36 -156 158 -278 309 -310 40 -9 512
-12 1800 -12 1864 0 1799 -1 1891 47 77 39 156 135 191 232 18 49 22 84 24
262 2 113 0 252 -5 310 l-8 105 -3 -145 c-3 -128 -4 -136 -9 -65 -5 58 -8 9
-13 -175 -4 -140 -8 -263 -8 -274 -2 -38 -46 -112 -95 -161 -72 -73 -128 -96
-255 -106 -125 -10 -2998 -10 -3315 -1 -214 7 -222 8 -277 35 -73 36 -160 128
-186 199 -17 45 -21 98 -32 368 -6 173 -13 317 -16 319 -2 2 -4 -128 -4 -290z"/>
</g>
</svg>
