<?xml version="1.0" standalone="no"?>
<!DOCTYPE svg PUBLIC "-//W3C//DTD SVG 20010904//EN"
 "http://www.w3.org/TR/2001/REC-SVG-20010904/DTD/svg10.dtd">
<svg version="1.0" xmlns="http://www.w3.org/2000/svg"
 width="432.000000pt" height="248.000000pt" viewBox="0 0 432.000000 248.000000"
 preserveAspectRatio="xMidYMid meet">

<g transform="translate(0.000000,248.000000) scale(0.100000,-0.100000)"
fill="#000000" stroke="none">
<path d="M491 2318 c-96 -17 -183 -84 -231 -179 -33 -63 -41 -295 -38 -1029
l3 -625 26 -56 c35 -73 85 -128 151 -164 46 -25 66 -30 152 -33 262 -11 3191
59 3289 78 108 22 204 97 254 198 27 56 28 61 36 322 9 271 3 805 -11 1055 -9
149 -16 174 -73 246 -16 21 -50 51 -77 67 -87 56 -122 60 -557 72 -662 17
-1216 29 -1875 40 -344 5 -710 11 -815 13 -104 2 -210 0 -234 -5z m1784 -148
c316 -9 593 -20 1300 -55 66 -4 144 -13 173 -22 65 -20 133 -77 162 -139 25
-51 37 -176 26 -267 -7 -52 -12 -61 -72 -121 -36 -36 -71 -66 -79 -66 -7 0
-15 -3 -17 -7 -1 -5 -24 -18 -50 -31 -26 -13 -50 -27 -53 -33 -4 -5 -15 -9
-25 -9 -10 0 -31 -6 -47 -14 -15 -8 -48 -20 -73 -26 -25 -7 -90 -27 -145 -45
-55 -18 -117 -36 -137 -39 -21 -4 -38 -11 -38 -16 0 -6 -12 -10 -26 -10 -14 0
-33 -4 -43 -10 -10 -5 -35 -11 -54 -13 -20 -2 -43 -10 -51 -16 -8 -6 -43 -16
-78 -22 -34 -6 -64 -14 -66 -18 -1 -4 -16 -5 -33 -3 -17 3 -34 1 -38 -4 -10
-14 -112 -44 -158 -46 -24 -1 -43 -6 -43 -11 0 -5 -7 -7 -15 -4 -8 4 -17 1
-21 -4 -3 -6 -17 -9 -30 -6 -13 2 -24 1 -24 -3 0 -9 -74 -23 -120 -21 -19 0
-42 -2 -50 -6 -8 -3 -32 -5 -53 -4 -21 2 -60 -2 -85 -8 -34 -8 -72 -8 -137 0
-49 6 -113 11 -142 12 -28 1 -55 5 -59 10 -4 4 -29 7 -55 7 -26 0 -51 5 -54
10 -3 6 -19 10 -35 10 -16 0 -32 5 -35 10 -3 6 -21 10 -40 10 -19 0 -37 5 -40
10 -3 6 -19 10 -35 10 -15 0 -57 9 -92 20 -34 11 -73 20 -85 20 -12 0 -23 4
-25 9 -1 5 -34 18 -73 28 -38 10 -71 21 -73 25 -2 5 -19 8 -37 8 -18 0 -35 6
-38 13 -2 7 -18 13 -33 15 -16 1 -49 10 -74 20 -70 30 -141 54 -185 62 -22 5
-41 13 -43 19 -2 6 -12 11 -22 11 -10 0 -22 5 -25 10 -3 6 -15 10 -26 10 -11
0 -25 5 -32 10 -7 6 -37 27 -67 47 -30 20 -62 45 -71 55 -9 10 -21 18 -28 18
-6 0 -11 7 -11 15 0 8 -5 15 -10 15 -6 0 -13 7 -17 17 -4 9 -23 32 -44 52 -54
53 -59 68 -60 191 -1 105 0 114 30 175 31 62 73 102 136 131 47 21 1117 30
1700 14z"/>
<path d="M33 710 l2 -325 32 -67 c40 -85 106 -156 180 -194 54 -27 68 -29 188
-33 199 -5 1228 15 2760 54 693 18 772 23 850 59 72 33 165 122 198 189 39 79
47 157 45 412 -1 146 -4 201 -8 150 -4 -61 -7 -72 -11 -45 -6 34 -6 34 -8 -10
-20 -467 -19 -460 -41 -503 -27 -53 -93 -121 -145 -152 -80 -47 -130 -53 -495
-65 -463 -14 -1421 -37 -2035 -49 -1231 -25 -1168 -25 -1227 -7 -109 31 -210
126 -242 226 -11 33 -17 126 -22 340 -4 162 -11 306 -15 320 -4 14 -7 -121 -6
-300z"/>
</g>
</svg>
