<?xml version="1.0" standalone="no"?>
<!DOCTYPE svg PUBLIC "-//W3C//DTD SVG 20010904//EN"
 "http://www.w3.org/TR/2001/REC-SVG-20010904/DTD/svg10.dtd">
<svg version="1.0" xmlns="http://www.w3.org/2000/svg"
 width="432.000000pt" height="248.000000pt" viewBox="0 0 432.000000 248.000000"
 preserveAspectRatio="xMidYMid meet">

<g transform="translate(0.000000,248.000000) scale(0.100000,-0.100000)"
fill="#000000" stroke="none">
<path d="M491 2318 c-96 -17 -183 -84 -231 -179 -33 -63 -41 -295 -38 -1029
l3 -625 26 -56 c35 -73 85 -128 151 -164 46 -25 66 -30 152 -33 262 -11 3191
59 3289 78 108 22 204 97 254 198 27 56 28 61 36 322 9 271 3 805 -11 1055 -9
149 -16 174 -73 246 -16 21 -50 51 -77 67 -87 56 -122 60 -557 72 -687 18
-1227 29 -1875 40 -344 5 -710 11 -815 13 -104 2 -210 0 -234 -5z"/>
<path d="M33 710 l2 -325 32 -67 c40 -85 106 -156 180 -194 54 -27 68 -29 188
-33 199 -5 1228 15 2760 54 693 18 772 23 850 59 72 33 165 122 198 189 39 79
47 157 45 412 -1 146 -4 201 -8 150 -4 -61 -7 -72 -11 -45 -6 34 -6 34 -8 -10
-20 -467 -19 -460 -41 -503 -27 -53 -93 -121 -145 -152 -80 -47 -130 -53 -495
-65 -463 -14 -1421 -37 -2035 -49 -1231 -25 -1168 -25 -1227 -7 -109 31 -210
126 -242 226 -11 33 -17 126 -22 340 -4 162 -11 306 -15 320 -4 14 -7 -121 -6
-300z"/>
</g>
</svg>
